<?xml version="1.0" standalone="no"?>
<!DOCTYPE svg PUBLIC "-//W3C//DTD SVG 20010904//EN"
 "http://www.w3.org/TR/2001/REC-SVG-20010904/DTD/svg10.dtd">
<svg version="1.0" xmlns="http://www.w3.org/2000/svg"
 width="512.000000pt" height="512.000000pt" viewBox="0 0 512.000000 512.000000"
 preserveAspectRatio="xMidYMid meet">
<metadata>
Created by potrace 1.14, written by Peter Selinger 2001-2017
</metadata>
<g transform="translate(0.000000,512.000000) scale(0.100000,-0.100000)"
fill="#000000" stroke="none">
<path d="M2457 5101 c-27 -9 -72 -37 -100 -62 -47 -41 -59 -47 -113 -52 -81
-8 -300 -52 -383 -78 -305 -93 -560 -222 -800 -403 -52 -39 -101 -77 -111 -83
-10 -9 -64 -14 -151 -16 -152 -4 -177 -12 -218 -75 -23 -35 -25 -47 -26 -183
l-1 -146 -35 -49 c-89 -126 -187 -297 -252 -444 -82 -183 -161 -456 -183 -635
-3 -22 -7 -50 -9 -61 -7 -32 -18 -228 -18 -314 0 -76 11 -261 17 -296 2 -10 7
-39 10 -64 25 -181 86 -407 153 -570 30 -73 81 -180 148 -308 31 -60 185 -283
242 -351 80 -95 177 -195 269 -276 43 -38 81 -72 84 -75 8 -8 111 -83 165
-121 265 -184 632 -338 940 -394 184 -33 245 -38 460 -39 207 -1 292 5 430 29
517 90 967 320 1334 683 71 70 150 154 177 187 27 33 52 62 55 65 3 3 35 48
71 100 129 187 227 377 303 586 51 139 101 339 121 482 3 20 7 48 9 62 7 48
19 256 18 325 0 82 -12 265 -19 297 -2 13 -7 43 -10 68 -3 25 -9 61 -14 80 -5
19 -11 51 -14 70 -9 59 -73 269 -116 378 -58 149 -146 318 -242 462 l-82 125
-2 141 c-2 149 -9 178 -56 220 -34 32 -61 37 -199 39 -109 1 -129 4 -145 20
-11 10 -64 52 -119 92 -55 40 -104 77 -110 81 -54 41 -319 180 -415 218 -25 9
-49 20 -55 24 -5 4 -57 22 -115 39 -58 18 -116 37 -130 42 -14 5 -81 20 -150
33 -110 22 -147 28 -247 40 -12 2 -34 17 -48 34 -64 76 -211 110 -318 73z"/>
</g>
</svg>
